<svg xmlns="http://www.w3.org/2000/svg" width="19.189" height="15.422" viewBox="0 0 19.189 15.422">
  <g id="Group_37597" data-name="Group 37597" transform="translate(0 0)">
    <path id="Path_41522" data-name="Path 41522" d="M379.042,302.009V303.7h-.666v-5.816h2.258l-.583-2.058h1.325a2.488,2.488,0,0,1-2-2.4,2.352,2.352,0,0,1,1.515.508,2.5,2.5,0,0,1,.717-1.707,2.417,2.417,0,0,1,.71,1.681,6.712,6.712,0,0,1,.726-.353,6.966,6.966,0,0,1,.8-.181,2.375,2.375,0,0,1-.548,1.579,2.68,2.68,0,0,1-1.39.873h1.257l-.591,2.048h2.291V303.7H384.2v-1.686Zm3.425-2.405h-1.693v.661h1.693Z" transform="translate(-378.376 -288.288)" fill="#fa632c" fill-rule="evenodd"/>
    <path id="Path_41523" data-name="Path 41523" d="M406.536,300.733a2.157,2.157,0,0,0-1.414-.345c-1.207.008-2.414,0-3.621,0a4.284,4.284,0,0,0-.747.052,6.719,6.719,0,0,0-.716.209c-.01-.069-.021-.178-.041-.285a1.139,1.139,0,0,0-.516-.781.281.281,0,0,1-.143-.277c.006-.665,0-1.329,0-1.993a1.7,1.7,0,0,1,1.729-1.724q2.217-.009,4.435,0a1.7,1.7,0,0,1,1.719,1.712c.007.657,0,1.314,0,1.971a.338.338,0,0,1-.161.319A1.281,1.281,0,0,0,406.536,300.733Z" transform="translate(-389.754 -290.114)" fill="#fa632c" fill-rule="evenodd"/>
    <path id="Path_41524" data-name="Path 41524" d="M392.336,287.371v.785q0,2.324,0,4.648a.277.277,0,0,1-.141.278,1.335,1.335,0,0,0-.537.732v-6.426h-2.068c.116-1.271.229-2.517.343-3.771h4.115c.114,1.248.227,2.489.343,3.755Z" transform="translate(-384.464 -283.616)" fill="#fa632c" fill-rule="evenodd"/>
    <path id="Path_41525" data-name="Path 41525" d="M400.843,312.859h6.515v.982c0,.214,0,.428,0,.642,0,.305-.123.425-.431.426q-1.894,0-3.789,0c-.621,0-1.242,0-1.863,0-.309,0-.43-.119-.431-.425C400.842,313.95,400.843,313.415,400.843,312.859Z" transform="translate(-390.571 -299.489)" fill="#fa632c" fill-rule="evenodd"/>
    <path id="Path_41526" data-name="Path 41526" d="M407.325,309.295h-6.541a5.708,5.708,0,0,1,.111-1.042.9.9,0,0,1,.907-.657q2.269-.018,4.538,0a1.009,1.009,0,0,1,.984.97C407.333,308.8,407.325,309.034,407.325,309.295Z" transform="translate(-390.539 -296.627)" fill="#fa632c" fill-rule="evenodd"/>
    <path id="Path_41527" data-name="Path 41527" d="M397.308,308.062q0,1.049,0,2.1a.579.579,0,0,1-.657.656c-.164,0-.329,0-.492,0a.546.546,0,0,1-.561-.555q-.008-2.184,0-4.368a.543.543,0,0,1,.533-.559,5.009,5.009,0,0,1,.556-.012.56.56,0,0,1,.622.643Q397.309,307.013,397.308,308.062Z" transform="translate(-387.721 -295.396)" fill="#fa632c" fill-rule="evenodd"/>
    <path id="Path_41528" data-name="Path 41528" d="M416.593,308.059q0-1.039,0-2.078a.569.569,0,0,1,.625-.645c.149-.005.3-.006.449,0a.575.575,0,0,1,.639.655q0,1.885,0,3.771c0,.164,0,.329,0,.493a.557.557,0,0,1-.572.568c-.171.006-.342,0-.514,0a.567.567,0,0,1-.626-.622C416.591,309.488,416.593,308.773,416.593,308.059Z" transform="translate(-399.12 -295.404)" fill="#fa632c" fill-rule="evenodd"/>
  </g>
</svg>
