<svg xmlns="http://www.w3.org/2000/svg" width="77.476" height="93" viewBox="0 0 77.476 93">
  <g id="Group_37636" data-name="Group 37636" transform="translate(-645.898 -1248.251)">
    <path id="Path_41505" data-name="Path 41505" d="M719.694,1248.251a.855.855,0,0,0,.209.154,4.576,4.576,0,0,1,3.466,4.817q.01,18.244,0,36.488c0,3.182-1.9,5.039-5.109,5.041q-10.031,0-20.059,0h-1.124v3.095h3.035c.545,0,1.09-.016,1.634.006a3.064,3.064,0,0,1,3.032,3.1,7.093,7.093,0,0,1-4.086,6.652c-.259.135-.533.242-.707.319a17.372,17.372,0,0,1,1.468,2.5,4.116,4.116,0,0,1-.544,3.89.821.821,0,0,0-.049,1.1,4.457,4.457,0,0,1,.017,5.193.967.967,0,0,0-.138.772c1.316,2.63,1.3,3.517-.158,5.889,2.154,4.068.9,6.922-3.56,7.873,0,.418.005.862,0,1.306a4.621,4.621,0,0,1-3.282,4.6,2.971,2.971,0,0,0-.382.2H691.54a4.834,4.834,0,0,1-3.741-3.98,10.238,10.238,0,0,1-.017-1.786c-1.255-.688-2.3-1.287-3.375-1.834a2.167,2.167,0,0,0-.955-.158,41.646,41.646,0,0,1-9.393-.663,39.246,39.246,0,0,1-8.456-3.193,7.723,7.723,0,0,0-3.115-.736c-3.811-.086-7.625-.031-11.439-.036-3.257,0-5.14-1.872-5.145-5.112q-.011-6.538,0-13.075c.005-3.216,1.852-5.055,5.077-5.06,3.57-.006,7.142-.018,10.713.006a5.7,5.7,0,0,0,3.77-1.29,28.741,28.741,0,0,1,18.721-6.491c1.089.005,2.179-.005,3.268-.012a1.015,1.015,0,0,0,.221-.071v-3.01h-1q-10.08,0-20.157,0c-3.237,0-5.129-1.892-5.13-5.127q0-17.842,0-35.683c0-3.324.778-4.485,3.814-5.69Zm-27.244,3.095H666.757c-1.82,0-2.275.444-2.275,2.226q0,17.93,0,35.862c0,1.749.464,2.222,2.189,2.222h51.388c1.76,0,2.212-.444,2.212-2.182q0-17.977,0-35.953c0-1.736-.45-2.175-2.218-2.175Zm-4.76,49.595c-1.076,0-2.043.015-3.009,0a26.015,26.015,0,0,0-17.473,5.956,8.081,8.081,0,0,1-5.291,1.823q-5.449-.01-10.9,0c-1.534,0-2.015.475-2.016,1.994q-.007,6.491,0,12.985c0,1.57.494,2.068,2.061,2.07,2.785.007,5.575.117,8.352-.027,3.5-.181,6.811.239,9.813,2.189a4.524,4.524,0,0,0,.66.3,27.528,27.528,0,0,0,13.1,2.107c.209-.756.406-1.477.614-2.232-1.679-1.324-2.614-3.082-1.812-5.149a4.065,4.065,0,0,0,0-3.665c-.734-1.522-.107-3.068.886-4.376a2.717,2.717,0,0,0-.151-.278,4.47,4.47,0,0,1-.461-4.95,4.6,4.6,0,0,1,4.38-2.546c.409-.005.818,0,1.242,0Zm3.919,15.506c-1.693,0-3.385-.012-5.079,0-1.179.011-1.859.572-1.887,1.507-.027.968.681,1.589,1.892,1.595q5.079.018,10.156,0c1.171-.006,1.866-.584,1.9-1.508.031-.954-.7-1.581-1.9-1.593C694.995,1316.434,693.3,1316.446,691.609,1316.447Zm-.065-3.109c1.693,0,3.385.006,5.078,0,1.242-.007,1.951-.563,1.966-1.517.016-.987-.721-1.579-2.011-1.582q-4.988-.009-9.977,0c-1.228,0-1.941.579-1.956,1.538s.679,1.551,1.912,1.558C688.219,1313.347,689.881,1313.338,691.544,1313.339Zm-.006,9.326c-1.663,0-3.325-.008-4.988,0-1.23.008-1.925.593-1.906,1.565.02.932.717,1.527,1.873,1.531q5.078.016,10.156,0c1.2,0,1.934-.637,1.914-1.588-.019-.93-.713-1.5-1.881-1.508C694.984,1322.655,693.26,1322.664,691.538,1322.664Zm-.649-27.865v12.259h2.991V1294.8Zm1.516,34.068c-1.48,0-2.961-.01-4.44,0-1.1.011-1.744.588-1.75,1.519a1.543,1.543,0,0,0,1.722,1.569q4.44.027,8.878,0a1.608,1.608,0,0,0,1.775-1.543,1.573,1.573,0,0,0-1.747-1.545C695.364,1328.856,693.883,1328.868,692.4,1328.868Zm4.659-23.439c2.973-.315,4.844-2.189,4.509-4.424h-4.509Zm-3.143,29.69h-3.091c.063,1.017-.33,2.13.742,2.738a1.93,1.93,0,0,0,1.585.032C694.273,1337.311,693.856,1336.172,693.92,1335.118Z" transform="translate(0 0)" fill="#002d47" fill-rule="evenodd"/>
    <path id="Path_41506" data-name="Path 41506" d="M683.924,1272.445a7.976,7.976,0,0,1,2.914,4.627,7.706,7.706,0,0,1-7.231,9.316c-1.661.084-3.33.056-4.992.011a3.021,3.021,0,0,1-3.07-3.144q-.03-10.8,0-21.609a2.941,2.941,0,0,1,2.793-3.116,36.566,36.566,0,0,1,5.891.08,7.221,7.221,0,0,1,6.439,5.463,7.419,7.419,0,0,1-2.455,8.1C684.145,1272.232,684.081,1272.3,683.924,1272.445ZM674.71,1261.7v9.16c1.7,0,3.337.075,4.96-.017a4.552,4.552,0,0,0,4.246-4.4,4.462,4.462,0,0,0-3.773-4.7A47.7,47.7,0,0,0,674.71,1261.7Zm-.021,12.325v9.208a49.5,49.5,0,0,0,5.272-.036,4.5,4.5,0,0,0,3.956-4.74,4.571,4.571,0,0,0-4.423-4.418C677.93,1273.964,676.358,1274.024,674.689,1274.024Z" transform="translate(-2.382 -0.948)" fill="#fa632c" fill-rule="evenodd"/>
    <path id="Path_41507" data-name="Path 41507" d="M707.414,1272.407q0-5.218,0-10.437c0-2.251,1.227-3.509,3.482-3.466a25.333,25.333,0,0,1,4.954.338,9.008,9.008,0,0,1,7.019,8.71q.081,4.808.007,9.62a9.251,9.251,0,0,1-8.986,9.225c-1.118.053-2.24.045-3.358.012a3.09,3.09,0,0,1-3.12-3.2c0-.061,0-.122,0-.182Zm3.128,10.881c1.235,0,2.387.088,3.52-.016a6.118,6.118,0,0,0,5.726-6.233c.022-3.144.027-6.289-.01-9.433a5.824,5.824,0,0,0-4.122-5.6,33.053,33.053,0,0,0-5.113-.569Z" transform="translate(-5.716 -0.952)" fill="#fa632c" fill-rule="evenodd"/>
    <path id="Path_41508" data-name="Path 41508" d="M698.1,1261.694v21.624c.97,0,1.9-.01,2.825,0,1.086.015,1.776.6,1.793,1.5a1.616,1.616,0,0,1-1.823,1.588q-4.4.021-8.8,0a1.554,1.554,0,0,1-1.748-1.55c0-.934.644-1.521,1.736-1.538.929-.015,1.859,0,2.832,0v-21.733c-.922,0-1.847.008-2.771,0-1.149-.014-1.818-.608-1.8-1.572.019-.92.681-1.513,1.779-1.518q4.4-.022,8.8,0a1.614,1.614,0,0,1,1.8,1.524c.023.928-.694,1.548-1.824,1.566-.847.013-1.694.012-2.541.021A1.185,1.185,0,0,0,698.1,1261.694Z" transform="translate(-4.13 -0.951)" fill="#fa632c" fill-rule="evenodd"/>
  </g>
</svg>
