<svg xmlns="http://www.w3.org/2000/svg" width="97.244" height="94.001" viewBox="0 0 97.244 94.001">
  <g id="Group_37638" data-name="Group 37638" transform="translate(-389.263 -1126.01)">
    <path id="Path_41497" data-name="Path 41497" d="M483.308,1142.224H392.459v1.13q0,30.7,0,61.411c0,1.846.477,2.317,2.349,2.317h50.365c1.633,0,2.438.553,2.4,1.645-.035,1.049-.808,1.55-2.4,1.55q-25.233,0-50.466,0c-3.51,0-5.447-1.94-5.447-5.458q0-36.686,0-73.369c0-3.509,1.94-5.437,5.469-5.437q43.17,0,86.339,0c3.459,0,5.428,1.948,5.428,5.377q0,25.335,0,50.669a6.984,6.984,0,0,1-.011.71,1.585,1.585,0,0,1-3.168.029,10.015,10.015,0,0,1-.014-1.011v-39.561Zm0-3.3v-7.212c0-2.116-.4-2.512-2.561-2.512H395.019a7.906,7.906,0,0,0-1.111.022,1.454,1.454,0,0,0-1.4,1.371c-.059,2.76-.024,5.52-.024,8.331Z" fill="#002d47" fill-rule="evenodd"/>
    <path id="Path_41498" data-name="Path 41498" d="M421.67,1154.271l-15.818,17.142c1.634,0,3.006-.09,4.356.044a2.305,2.305,0,0,1,1.489.95,1.614,1.614,0,0,1-.137,1.467,2.448,2.448,0,0,1-1.352.7,6.329,6.329,0,0,1-1.468.024v19.515c.524,0,1.053-.032,1.576,0a1.609,1.609,0,0,1,1.587,1.537,1.592,1.592,0,0,1-1.593,1.629c-1.078.046-2.162.051-3.24,0-1.056-.052-1.586-.725-1.589-1.944q-.01-5.977,0-11.957V1174.6c-.995,0-1.958-.014-2.919,0a1.714,1.714,0,0,1-1.807-1.023,1.665,1.665,0,0,1,.527-1.914q9.486-10.272,18.975-20.545a1.683,1.683,0,0,1,2.843.007q9.457,10.233,18.9,20.474a1.728,1.728,0,0,1,.579,1.993,1.784,1.784,0,0,1-1.918,1.01c-.875-.023-1.753-.005-2.8-.005v1.2q0,9.627,0,19.254c0,1.732-.506,2.245-2.215,2.249q-4.309,0-8.615,0c-1.53,0-2.087-.552-2.091-2.066,0-3.578,0-7.157,0-10.82H418.4v1.021c0,3.309-.006,6.62,0,9.931a1.707,1.707,0,0,1-1.032,1.8c-1.107.459-2.151-.355-2.158-1.734-.017-3.648-.006-7.3-.006-10.945,0-3.248.1-3.348,3.344-3.348,2.5,0,5-.005,7.5,0,1.52,0,2.073.555,2.077,2.078.006,3.578,0,7.156,0,10.812h6.456V1174.6H417.639c-.271,0-.542.015-.811-.008a1.589,1.589,0,1,1-.041-3.177c.3-.025.607-.008.91-.008q9.224,0,18.443,0h1.349C432.115,1165.588,426.934,1159.973,421.67,1154.271Z" fill="#002d47" fill-rule="evenodd"/>
    <path id="Path_41499" data-name="Path 41499" d="M482.52,1209.911c-1.36-1.35-2.776-2.749-4.184-4.154q-3.836-3.829-7.665-7.669c-1.2-1.213-1.055-2.219.437-3.071q3.3-1.878,6.6-3.752c.054-.029.085-.1.229-.274-9.8-3.02-19.547-6.019-29.548-9.1,3.069,9.981,6.079,19.767,9.163,29.792,1.536-2.651,2.935-5.07,4.336-7.485.271-.468.52-.952.828-1.392a1.568,1.568,0,0,1,2.708,1.58c-.736,1.368-1.534,2.7-2.312,4.043-1.469,2.54-2.95,5.077-4.41,7.622-.414.725-.912,1.267-1.838,1.125-.871-.133-1.183-.766-1.415-1.521q-5.42-17.645-10.864-35.284a1.678,1.678,0,0,1,2.253-2.286q17.64,5.442,35.284,10.857c.785.241,1.456.571,1.554,1.5s-.486,1.4-1.2,1.8c-2.763,1.548-5.518,3.114-8.544,5.029a4.183,4.183,0,0,1,.962.548q5.359,5.318,10.684,10.666c1.241,1.241,1.245,1.915.017,3.144q-3.758,3.769-7.525,7.524c-1.143,1.139-1.856,1.133-3-.007q-3.909-3.9-7.817-7.8a1.652,1.652,0,0,1-.424-2.1,1.432,1.432,0,0,1,1.818-.708,2.908,2.908,0,0,1,1.046.758c2.019,1.994,4.021,4.006,6.029,6.01.26.258.529.5.717.682C478.454,1213.971,480.429,1212,482.52,1209.911Z" fill="#fa632c" fill-rule="evenodd"/>
    <path id="Path_41500" data-name="Path 41500" d="M462.206,1155.147c-4.222,0-8.443.006-12.665,0-1.178,0-1.926-.679-1.895-1.643s.769-1.543,1.993-1.545q5.926-.009,11.853,0c4.392,0,8.78-.01,13.172.015a2.073,2.073,0,0,1,1.4.357,2.432,2.432,0,0,1,.571,1.664c-.081.776-.775,1.145-1.566,1.152-1.79.013-3.58.006-5.37.006Q465.953,1155.15,462.206,1155.147Z" fill="#002d47" fill-rule="evenodd"/>
    <path id="Path_41501" data-name="Path 41501" d="M457.339,1158.439c2.566,0,5.133-.005,7.7,0,1.264,0,2.032.651,2,1.644-.035.955-.774,1.543-1.995,1.545q-7.7.009-15.4,0c-1.263,0-2.03-.65-1.995-1.644.034-.959.769-1.541,1.993-1.545C452.2,1158.434,454.773,1158.439,457.339,1158.439Z" fill="#002d47" fill-rule="evenodd"/>
    <path id="Path_41502" data-name="Path 41502" d="M397.359,1135.678a1.587,1.587,0,1,1,1.575-1.549A1.629,1.629,0,0,1,397.359,1135.678Z" fill="#002d47" fill-rule="evenodd"/>
    <path id="Path_41503" data-name="Path 41503" d="M405.419,1134.091a1.587,1.587,0,1,1-1.538-1.586A1.627,1.627,0,0,1,405.419,1134.091Z" fill="#002d47" fill-rule="evenodd"/>
    <path id="Path_41504" data-name="Path 41504" d="M411.9,1134.1a1.585,1.585,0,1,1-1.527-1.595A1.627,1.627,0,0,1,411.9,1134.1Z" fill="#002d47" fill-rule="evenodd"/>
  </g>
</svg>
