<svg xmlns="http://www.w3.org/2000/svg" width="105.299" height="87.533" viewBox="0 0 105.299 87.533">
  <g id="Group_37637" data-name="Group 37637" transform="translate(-519.582 -1199.221)">
    <path id="Path_41494" data-name="Path 41494" d="M538.136,1207.147c0-1.949,0-3.709,0-5.469,0-1.667.6-2.475,1.819-2.457,1.189.016,1.751.777,1.755,2.4,0,1.792,0,3.584,0,5.451h61.043c0-2.1-.033-4.128.013-6.153a1.665,1.665,0,0,1,1.727-1.7,1.738,1.738,0,0,1,1.808,1.634,10.211,10.211,0,0,1,.018,1.056c0,1.681,0,3.363,0,5.237h1.419q7.287,0,14.569,0c2.051,0,2.569.528,2.569,2.57q0,34.073,0,68.146c0,5.423-3.438,8.881-8.883,8.883q-43.764.014-87.532,0c-5.446,0-8.88-3.457-8.88-8.878q0-34.074,0-68.147c0-2.05.512-2.57,2.563-2.573q7.225-.009,14.451,0Zm-14.971,22.117v1.379q0,23.5,0,46.992c0,3.726,1.816,5.532,5.56,5.532H615.78c3.713,0,5.519-1.825,5.519-5.579q0-23.5,0-46.994v-1.331Zm.057-3.748h97.988v-14.669H606.323c0,1.183.014,2.276,0,3.367-.021,1.27-.694,2.037-1.763,2.052-1.085.015-1.78-.734-1.8-2-.022-1.125,0-2.252,0-3.442H541.711c0,1.189.018,2.315,0,3.441-.025,1.265-.719,2.015-1.8,2s-1.741-.777-1.761-2.05c-.016-1.122,0-2.244,0-3.374H523.223Z" transform="translate(0)" fill="#002d47" fill-rule="evenodd"/>
    <path id="Path_41495" data-name="Path 41495" d="M567.447,1271.258a20.272,20.272,0,1,1,20.237-20.249A20.258,20.258,0,0,1,567.447,1271.258Zm.162-36.93a16.652,16.652,0,1,0,16.5,17.065A16.723,16.723,0,0,0,567.609,1234.328Z" transform="translate(4.789 5.462)" fill="#fa632c" fill-rule="evenodd"/>
    <path id="Path_41496" data-name="Path 41496" d="M561.118,1252.069c2.406-1.788,4.754-3.533,7.1-5.281q3.012-2.243,6.016-4.493a1.833,1.833,0,0,1,2.368-.187c1.083.771,1.029,2.125-.19,3.05-2.929,2.222-5.886,4.407-8.832,6.6-1.819,1.357-3.632,2.72-5.462,4.057a1.875,1.875,0,0,1-3.019-.422q-1.873-2.482-3.7-5c-.794-1.1-.689-2.126.229-2.777a1.841,1.841,0,0,1,2.645.616C559.219,1249.476,560.133,1250.739,561.118,1252.069Z" transform="translate(6.119 7.376)" fill="#fa632c" fill-rule="evenodd"/>
  </g>
</svg>
