<svg xmlns="http://www.w3.org/2000/svg" width="51.342" height="51.139" viewBox="0 0 51.342 51.139">
  <g id="Group_37633" data-name="Group 37633" transform="translate(-106.75 -230.486)">
    <path id="Path_41485" data-name="Path 41485" d="M106.75,261.66a29.514,29.514,0,0,1,6.219-7.472,27.553,27.553,0,0,1,12.44-6.131,3.3,3.3,0,0,1,1.377.079,28.049,28.049,0,0,1,18.052,13.191,1.008,1.008,0,0,1-.939,1.635c-.532.005-1.065,0-1.675,0v1.608c0,.652,0,1.3,0,1.955-.006.776-.381,1.241-1,1.248s-1-.444-1-1.225c0-1.168,0-2.336,0-3.544H111.771v16.564h2.375c0-.194,0-.389,0-.584,0-2.623-.036-5.248.019-7.87a5.373,5.373,0,0,1,5.776-5.229,5.446,5.446,0,0,1,5.03,5.557c.02,2.506,0,5.013,0,7.52v.619h15.242c0-.175,0-.351,0-.528,0-1.053-.007-2.105,0-3.158a1,1,0,0,1,.984-1.094,1.012,1.012,0,0,1,1.011,1.081c.018,1.219.005,2.438.005,3.692h7.606c-.239-11.029-2.3-21.531-8.512-30.935a3.7,3.7,0,0,1-5.607-4.527h-.566q-5.113,0-10.226,0a1.135,1.135,0,0,1-1.152-.536,1.112,1.112,0,0,1,.229-1.291,10.792,10.792,0,0,1,8.989-4.329c.35,0,.7.03,1.176.052-.181-.194-.292-.32-.411-.439q-2.48-2.482-4.964-4.961c-.354-.352-.683-.7-.507-1.262.19-.609.7-.705,1.224-.774a10.987,10.987,0,0,1,11.03,5.74c.1.188.2.376.331.623.146-.27.256-.486.377-.694a10.924,10.924,0,0,1,10.075-5.758,9.327,9.327,0,0,1,1.145.125,1.059,1.059,0,0,1,.99.722,1.1,1.1,0,0,1-.385,1.165c-1.259,1.245-2.507,2.5-3.76,3.754-.553.552-1.109,1.1-1.748,1.736,4.445-.258,8.023,1.142,10.537,4.819v.6a1.34,1.34,0,0,1-1.36.712c-2.822-.024-5.644-.01-8.467-.01h-.539a4.479,4.479,0,0,1,.277,2.84,1,1,0,0,0,.191.54,52.85,52.85,0,0,1,4.785,10.765,70.364,70.364,0,0,1,3.227,19.387c.021.644,0,1.289,0,2,.825-.085,1.511-.079,1.884.673v.6a1.366,1.366,0,0,1-1.362.712q-24.309-.019-48.618,0a1.361,1.361,0,0,1-1.362-.712v-.6a1.3,1.3,0,0,1,1.363-.71c.524.038,1.054.008,1.583.008V262.963c-.554,0-1.072-.03-1.586.008a1.278,1.278,0,0,1-1.36-.71Zm37.616-11.954c5.321,9.207,7.27,19.33,7.466,29.867h2.433c-.21-10.828-2.185-21.171-7.515-30.589Zm-21.449,29.889a.9.9,0,0,0,.047-.18c0-2.739.024-5.478-.012-8.216a3.221,3.221,0,0,0-1.724-2.87,3.371,3.371,0,0,0-5.058,2.811c-.055,2.738-.016,5.477-.016,8.216a1.326,1.326,0,0,0,.045.239Zm-1.57-18.657h9.172c-.276-1.08-.517-2.134-.816-3.171a21.328,21.328,0,0,0-2.7-6.266c-.314-.459-.7-.868-1.052-1.3C123.842,251.893,122.026,257.139,121.347,260.937Zm1.4-10c-3.769.607-11.741,6.736-13.057,10h9.565A33.818,33.818,0,0,1,122.746,250.936Zm6.388,0a35.892,35.892,0,0,1,3.417,9.98h9.656A25.978,25.978,0,0,0,129.134,250.941Zm15.061-8.863h10.515c-.019-.056-.02-.094-.039-.111a3.282,3.282,0,0,0-.274-.217,9.051,9.051,0,0,0-9.651-.754A.83.83,0,0,0,144.2,242.078Zm-7.346.013a1.875,1.875,0,0,1,.006-.49c.179-.585-.166-.774-.629-.953a9.034,9.034,0,0,0-8.808,1.038c-.152.1-.288.228-.51.405Zm6.574-2.78c1.123-1.129,2.229-2.243,3.338-3.354s2.23-2.227,3.4-3.393c-3.215.042-7.1,3.074-7.684,5.913Zm-4.266-1.157c-1.06-3-4.982-5.9-7.389-5.562l6.276,6.276Zm1.339,5.095a1.646,1.646,0,0,0,.036-3.292,1.646,1.646,0,1,0-.036,3.292Zm2.346,2.684a1.643,1.643,0,0,0,1.66,1.636,1.648,1.648,0,1,0-.03-3.3A1.631,1.631,0,0,0,142.842,245.932Zm-4.725-1.548a1.644,1.644,0,0,0,1.277,2.985,1.608,1.608,0,0,0,1.236-1.707c-.016-.147-.191-.386-.306-.395A4.055,4.055,0,0,1,138.117,244.384Z" transform="translate(0 0)" fill="#002e48" fill-rule="evenodd"/>
    <path id="Path_41486" data-name="Path 41486" d="M266.159,517.438c-.8,0-1.6.007-2.4,0a2.725,2.725,0,0,1-2.769-2.707q-.04-2.1,0-4.207a2.718,2.718,0,0,1,2.768-2.707c1.6-.016,3.205-.013,4.808,0a2.746,2.746,0,0,1,2.834,2.758q.054,2.052,0,4.106a2.753,2.753,0,0,1-2.883,2.759C267.728,517.442,266.944,517.438,266.159,517.438Zm.05-2.005c.767,0,1.535.006,2.3,0a.774.774,0,0,0,.883-.852q.023-1.951,0-3.9a.772.772,0,0,0-.882-.855q-2.327-.012-4.654,0a.759.759,0,0,0-.87.854q-.015,1.952,0,3.9c0,.581.283.847.869.853C264.641,515.439,265.425,515.433,266.209,515.433Z" transform="translate(-133.595 -240.236)" fill="#f9652f" fill-rule="evenodd"/>
    <path id="Path_41487" data-name="Path 41487" d="M358.086,528.138a1,1,0,1,1-.049,2,1,1,0,0,1,.049-2Z" transform="translate(-216.861 -257.85)" fill="#f9652f" fill-rule="evenodd"/>
  </g>
</svg>
