<svg xmlns="http://www.w3.org/2000/svg" width="50" height="50" viewBox="0 0 50 50">
  <g id="Group_37652" data-name="Group 37652" transform="translate(-2821 432)">
    <g id="Group_37640" data-name="Group 37640" transform="translate(1971 -770)">
      <rect id="Rectangle_948" data-name="Rectangle 948" width="50" height="50" rx="15" transform="translate(850 338)" fill="#f9652f"/>
    </g>
    <path id="Icon_ion-filter" data-name="Icon ion-filter" d="M28.484,11.317H2.565a1.44,1.44,0,0,1,0-2.88H28.484a1.44,1.44,0,0,1,0,2.88Zm-4.8,6.72H7.365a1.44,1.44,0,0,1,0-2.88H23.684a1.44,1.44,0,1,1,0,2.88Zm-5.76,6.72h-4.8a1.44,1.44,0,1,1,0-2.88h4.8a1.44,1.44,0,0,1,0,2.88Z" transform="translate(2830.875 -423.438)" fill="#fff"/>
  </g>
</svg>
