<svg xmlns="http://www.w3.org/2000/svg" width="57.283" height="51.139" viewBox="0 0 57.283 51.139">
  <g id="Group_37632" data-name="Group 37632" transform="translate(-754.8 -286.279)">
    <path id="Path_41490" data-name="Path 41490" d="M812.083,330.474v.671a1.405,1.405,0,0,1-1.451.807c-.85-.032-1.7-.008-2.583-.008v3.788c.946,0,1.872.018,2.8-.007a1.24,1.24,0,0,1,1.237.566v.559a1.265,1.265,0,0,1-1.183.567q-27.458-.014-54.916,0a1.265,1.265,0,0,1-1.183-.567v-.559a1.278,1.278,0,0,1,1.405-.548c-.009-1.217-.191-2.517,1.516-2.7a4.473,4.473,0,0,1,.619-2.614,1.806,1.806,0,0,0,.254-.874c.017-3.71.011-7.419.011-11.129v-.6c-.793,0-1.533,0-2.274,0a1.155,1.155,0,0,1-1.166-.608,1.141,1.141,0,0,1,.254-1.29q2.027-2.5,4.058-4.988a2.2,2.2,0,0,1,1.855-.855c.46.012.92,0,1.389,0v-8.861c-.676,0-1.312.047-1.938-.011a1.042,1.042,0,0,1-.8-1.741c.083-.124.181-.237.275-.352,1.187-1.46,2.413-2.892,3.55-4.391a2.875,2.875,0,0,1,2.688-1.258c.435.033.874.005,1.34.005,0-.682.022-1.261-.015-1.835a.586.586,0,0,0-.324-.409,1.316,1.316,0,0,1-.967-1.234c-.034-.818-.046-1.64,0-2.457a1.326,1.326,0,0,1,1.332-1.258q4.5-.024,9,0a1.33,1.33,0,0,1,1.346,1.243c.047.817.033,1.639,0,2.457a1.306,1.306,0,0,1-.956,1.241c-.134.048-.328.186-.333.29-.031.641-.016,1.284-.016,1.93.186.016.278.031.369.031,3.933,0,7.867.007,11.8-.012a1.032,1.032,0,0,0,.653-.319c1.093-1.147,2.164-2.314,3.239-3.479a1.27,1.27,0,0,1,1.384-.5,2.467,2.467,0,0,1,.946.639q7.84,8.441,15.655,16.9a2.841,2.841,0,0,1,.413.526.963.963,0,0,1-.512,1.421,2.376,2.376,0,0,1-.766.1c-1.038.011-2.076,0-3.122,0a2.662,2.662,0,0,0-.035.276c0,2.517-.007,5.033.006,7.55a1.352,1.352,0,0,0,.195.62c.686,1.216,1.369,2.435,2.092,3.63.445.735.676,1.421-.069,2.054a.686.686,0,0,0,.029.1q.611,1.066,1.223,2.132c.54.942.507,1.24-.252,2.046Zm-12.77,5.22h4.529v-3.755c-.987,0-1.934.022-2.88-.006a1.094,1.094,0,0,1-1.01-1.644,7.185,7.185,0,0,1,.35-.636c.479-.835.96-1.67,1.434-2.492-.747-.736-.793-1.071-.294-1.947.439-.77.882-1.539,1.326-2.312a1.13,1.13,0,0,1-.383-1.523c.859-1.525,1.756-3.028,2.624-4.548a1.536,1.536,0,0,0,.227-.707q.024-3.775,0-7.55a1.2,1.2,0,0,0-.29-.727c-1.032-1.153-2.092-2.28-3.142-3.416-.367-.4-.749-.782-1.091-1.2a.827.827,0,0,1,1.2-1.134,3.99,3.99,0,0,1,.311.321q1.995,2.155,3.991,4.308c.133.142.306.339.469.347.732.038,1.466.016,2.326.016l-14.935-16.143-14.939,16.147c.725,0,1.315-.028,1.9.009a1.1,1.1,0,0,0,.957-.423q5.606-6.09,11.234-12.159c.631-.682,1.054-.687,1.674-.02q2.092,2.255,4.177,4.516c.469.51.491,1.019.088,1.369s-.846.273-1.317-.228c-.638-.68-1.264-1.37-1.9-2.054-.616-.665-1.235-1.329-1.863-2-.1.084-.156.127-.2.18q-5.374,5.808-10.737,11.628a1.194,1.194,0,0,0-.236.75q-.018,13.227-.01,26.454v.589h5.929v-.689q0-6.264,0-12.528c0-1.058.538-1.659,1.525-1.664q3.719-.021,7.439,0a1.425,1.425,0,0,1,1.515,1.558c.011.857.007,1.715,0,2.573a5.2,5.2,0,0,1-.055.944.746.746,0,0,1-.849.643.768.768,0,0,1-.757-.757c-.024-.278-.014-.559-.014-.838,0-.8,0-1.593,0-2.406h-7.089v13.156h7.089c0-1.36,0-2.681,0-4,0-.69-.008-1.38.011-2.069a.768.768,0,0,1,.768-.805.778.778,0,0,1,.864.7,3.19,3.19,0,0,1,.035.612C799.314,331.974,799.313,333.817,799.313,335.694Zm-24.371,0h6.235V317.831h-6.415a8.469,8.469,0,0,1-1.005-.018.772.772,0,0,1-.75-.821.787.787,0,0,1,.75-.824,3.25,3.25,0,0,1,.5-.014h6.925v-4.359c-.164-.009-.291-.021-.419-.021-6.432,0-12.864-.006-19.3.017a1.255,1.255,0,0,0-.834.413c-1,1.176-1.966,2.388-2.94,3.59a4.179,4.179,0,0,0-.229.36h11.867a3.059,3.059,0,0,1,.558.02.827.827,0,0,1-.02,1.64,3.258,3.258,0,0,1-.558.017h-9.006V328.8a1.849,1.849,0,0,1,.4-.094c.682.007.771-.369.758-.965-.04-1.808-.024-3.617-.01-5.425a1.441,1.441,0,0,1,1.605-1.579q1.37-.007,2.74,0a1.465,1.465,0,0,1,1.624,1.623c.007,1.286,0,2.573,0,3.859V328.1c.482.083.623-.093.619-.51q-.023-2.628,0-5.257a1.447,1.447,0,0,1,1.6-1.588c.876-.005,1.752,0,2.629,0,1.2,0,1.747.538,1.749,1.725,0,2.517-.006,5.034.006,7.55a1.725,1.725,0,0,1-.7,1.613c.159.451.3.872.458,1.285a.509.509,0,0,0,.23.268,1.493,1.493,0,0,1,.922,1.572C774.936,335.052,774.942,335.349,774.942,335.7Zm-7.21-40.533a11.3,11.3,0,0,0-1.549.019,1.514,1.514,0,0,0-.883.435c-.973,1.129-1.9,2.3-2.838,3.458-.109.134-.206.276-.328.441a1.266,1.266,0,0,0,.193.048q10.572,0,21.144-.007a.879.879,0,0,0,.569-.259c1.2-1.273,2.39-2.564,3.579-3.851a1.811,1.811,0,0,0,.155-.244H776.962c-.3,1.458-.605,1.707-2.078,1.707-1.827,0-3.655-.007-5.482,0a1.4,1.4,0,0,1-1.353-.719A5.772,5.772,0,0,1,767.732,295.164ZM781.2,308.771h-.663c-.932,0-1.865,0-2.8-.007a1.04,1.04,0,0,1-1-.595,1.016,1.016,0,0,1,.187-1.143c.117-.145.24-.285.366-.422q2.26-2.443,4.521-4.885c.115-.125.224-.255.377-.431H764.484v.992h.647q4.447,0,8.894,0a1.453,1.453,0,0,1,1.638,1.6c.013,1.063.009,2.126,0,3.188-.008,1.17-.542,1.7-1.716,1.7q-4.447,0-8.894,0c-.2,0-.391.017-.562.024v1.258H781.2Zm-11.644-17.436V295.2h5.612v-3.864Zm40.421,38.9c-.563-.976-1.074-1.879-1.607-2.768a.542.542,0,0,0-.382-.236c-1.358-.017-2.716-.015-4.074,0a.486.486,0,0,0-.363.171c-.55.919-1.079,1.85-1.648,2.837Zm-39.755-26.243h-5.737v3.062h5.737Zm-7.09,18.445c0,1.764.024,3.477-.011,5.189-.015.738-.035,1.412.854,1.66.082.023.137.136.22.168.311.121.731.4.919.3a1.191,1.191,0,0,0,.649-1.076c-.031-1.918-.011-3.837-.013-5.756,0-.16-.021-.319-.033-.482Zm6.59-.005c0,1.9-.007,3.733.014,5.57,0,.129.181.309.32.376a4.258,4.258,0,0,1,1.709,1.473c.1.148.321.214.534.348v-7.768Zm-6.4,10.587h8.7l.064-.127c-.185-.162-.345-.4-.559-.472a1.254,1.254,0,0,1-.9-1.017,2.141,2.141,0,0,0-1.941-1.674,2.193,2.193,0,0,0-2.185,1.16c-.48.828-.6.873-1.518.644A1.314,1.314,0,0,0,763.321,333.022Zm-5.4,2.676h15.3v-.906h-15.3ZM768.2,287.989V289.6h8.33v-1.612Zm40.476,37.525c-.465-.809-.88-1.549-1.319-2.273a.5.5,0,0,0-.368-.175c-.706-.017-1.412-.014-2.118,0a.439.439,0,0,0-.325.149c-.448.74-.876,1.492-1.344,2.3Zm-36.71-21.534v3.079h1.979V303.98ZM762.7,330.488a2.23,2.23,0,0,0-2.3.194,2.193,2.193,0,0,0-.985,2.007.514.514,0,0,0,.329.372c.588.039,1.181.018,1.818.018A3.345,3.345,0,0,1,762.7,330.488Zm41.639-9.156h3.213l-1.608-2.788Zm1.951,14.371v-3.715h-.69V335.7Z" transform="translate(0 0)" fill="#002e48" fill-rule="evenodd"/>
    <path id="Path_41491" data-name="Path 41491" d="M990.442,429.694c0-2.184,0-4.307.005-6.43a2.3,2.3,0,0,1,.12-.876,1.417,1.417,0,0,1,1.41-.9c2.087.007,4.174,0,6.262,0a1.443,1.443,0,0,1,1.563,1.57c.01,1.994,0,3.988,0,5.982v.581c.073.047.106.086.135.084,1.213-.081,1.78.727,1.793,1.949.018,1.775-.355,2.428-2.367,2.381-3.036-.071-6.075-.018-9.113-.019a1.5,1.5,0,0,1-1.713-1.708c0-.317,0-.634,0-.95a1.467,1.467,0,0,1,1.563-1.632C990.194,429.723,990.284,429.711,990.442,429.694Zm7.642,0v-6.483h-5.928V429.7Zm-7.838,2.6H1000v-.831h-9.754Z" transform="translate(-201.052 -116.3)" fill="#f9652f" fill-rule="evenodd"/>
    <path id="Path_41492" data-name="Path 41492" d="M1016.156,586.351c0,.333.026.669-.006,1a.754.754,0,0,1-.817.74.725.725,0,0,1-.787-.705,18.888,18.888,0,0,1,0-2.053.717.717,0,0,1,.781-.706.744.744,0,0,1,.823.726A9.564,9.564,0,0,1,1016.156,586.351Z" transform="translate(-223.399 -256.625)" fill="#002e48" fill-rule="evenodd"/>
    <path id="Path_41493" data-name="Path 41493" d="M896.465,538.189c0-1.285,0-2.571,0-3.856a1.475,1.475,0,0,1,1.662-1.639c.931,0,1.863-.008,2.794,0a1.392,1.392,0,0,1,1.507,1.443q.032,4.079,0,8.159a1.4,1.4,0,0,1-1.538,1.47c-.968.008-1.937.009-2.906,0a1.428,1.428,0,0,1-1.517-1.5C896.453,540.909,896.465,539.549,896.465,538.189Zm4.249,3.883v-7.663h-2.529v7.663Z" transform="translate(-121.851 -211.954)" fill="#f9652f" fill-rule="evenodd"/>
  </g>
</svg>
