<svg xmlns="http://www.w3.org/2000/svg" width="17.639" height="17.639" viewBox="0 0 17.639 17.639">
  <path id="Icon_fa-solid-bath" data-name="Icon fa-solid-bath" d="M3.307,2.663a.458.458,0,0,1,.782-.324l.513.513A2.709,2.709,0,0,0,4.41,3.859,2.738,2.738,0,0,0,5.071,5.65a.826.826,0,0,0,1.3,1L9.957,3.066a.826.826,0,0,0-1-1.3A2.723,2.723,0,0,0,7.166,1.1a2.778,2.778,0,0,0-1.006.189L5.647.779A2.663,2.663,0,0,0,1.1,2.663V8.82a1.1,1.1,0,1,0,0,2.2H16.537a1.1,1.1,0,0,0,0-2.2H3.307ZM1.1,12.127v.551a3.31,3.31,0,0,0,1.1,2.467v1.392a1.1,1.1,0,1,0,2.2,0v-.551h8.82v.551a1.1,1.1,0,1,0,2.2,0V15.145a3.3,3.3,0,0,0,1.1-2.467v-.551Z" fill="#fa632c"/>
</svg>
