<svg xmlns="http://www.w3.org/2000/svg" width="49.952" height="49.952" viewBox="0 0 49.952 49.952">
  <g id="Group_37631" data-name="Group 37631" transform="translate(473.25 104.312)">
    <path id="Path_41488" data-name="Path 41488" d="M-423.3-67.238v1.561c-.21.011-.42.031-.63.031q-10.625,0-21.25,0h-.539a45.668,45.668,0,0,0,11.148,7.47v-1c2.067-.03,4.171-.376,5.626,1.613a4.215,4.215,0,0,1,3.6-1.643c.68.017,1.361-.023,2.041-.037v1.463l-.71,1.8.71-.049v1.659H-473.25v-1.659c.177.014.354.041.531.041q19.166,0,38.333,0h.5l.023-.121c-.135-.067-.266-.146-.406-.2a30.847,30.847,0,0,1-7.192-3.961c-2.777-2.064-5.475-4.234-8.207-6.358a31.344,31.344,0,0,0-6.6-4.211c-4.681-2.044-9.256-1.472-13.746.639-.67.315-1.294.725-1.967,1.106l-1.051-1.313c1.188-.614,2.287-1.2,3.4-1.747a.568.568,0,0,0,.4-.613c-.026-.779-.023-1.561,0-2.34a.5.5,0,0,0-.389-.557,5.7,5.7,0,0,1-2.481-1.9,6.949,6.949,0,0,1-1.157-2.755v-1.561a.465.465,0,0,0,.064-.129,8.017,8.017,0,0,1,4.537-6.184.492.492,0,0,1,.387-.04,8.1,8.1,0,0,1,4.508,5.611,5.92,5.92,0,0,1-3.635,7.043c-.07.03-.138.065-.187.088V-72.9a17.888,17.888,0,0,1,9.619-.244V-74.71l-.269-.135a4.754,4.754,0,0,1-2.921-4.611,8.748,8.748,0,0,1,3.754-7.146.38.38,0,0,1,.545.024,8.952,8.952,0,0,1,3.566,5.518c.631,3-.531,5.213-2.8,6.243a.545.545,0,0,0-.241.4,14.7,14.7,0,0,0,0,1.511.517.517,0,0,0,.195.384c1.21.619,2.432,1.216,3.691,1.839.085-.081.216-.2.341-.325,1.15-1.149,2.314-2.284,3.443-3.454.521-.54,1.018-1.051,1.86-.869.024.005.056-.026.1-.047V-88.2h-.618c-4.552,0-9.1-.007-13.656,0a4.214,4.214,0,0,1-3.146-1.3,1.048,1.048,0,0,0-.655-.287c-1.17-.028-2.341,0-3.511-.016a4.862,4.862,0,0,1-4.72-3.338c-.09-.274-.163-.553-.244-.83v-1.366a2.028,2.028,0,0,0,.1-.264,4.816,4.816,0,0,1,3.964-3.806.612.612,0,0,0,.541-.441,6.9,6.9,0,0,1,3.672-3.789,19.718,19.718,0,0,1,2.166-.676h1.659a.433.433,0,0,0,.125.067,7.161,7.161,0,0,1,5.075,3.2c.162.239.319.2.531.149a6.4,6.4,0,0,1,7.643,4.35.677.677,0,0,0,.488.45,9.551,9.551,0,0,1,1.589.812,4.931,4.931,0,0,1,.779.783c2.313-1.411,4.592-2.789,6.858-4.186a3.319,3.319,0,0,1,3.757,0c3.1,1.9,6.2,3.807,9.322,5.674a3.271,3.271,0,0,1,1.688,1.967v.878a2.578,2.578,0,0,1-1.3,1.677,9.9,9.9,0,0,1-1.1.365v12.788h2.4v1.659c-.195,0-.39-.012-.584-.012-7.361,0-14.722.014-22.083-.02a2.433,2.433,0,0,0-2.023.838c-.987,1.091-2.069,2.1-3.122,3.147.914.7,1.83,1.32,2.657,2.046a2.183,2.183,0,0,0,1.781.41,4.456,4.456,0,0,1-.767-3.2c.8,0,1.558,0,2.32,0a3.969,3.969,0,0,1,3.063,1.357c.073.079.156.149.262.25,1.471-1.991,3.569-1.6,5.581-1.584a4.512,4.512,0,0,1-.757,3.153h3.186a4.427,4.427,0,0,1-.767-3.174c.653,0,1.271.028,1.886-.006A4.226,4.226,0,0,1-429-68.932c.016.019.059.015.106.027a3.924,3.924,0,0,1,2.912-1.547c.891-.043,1.787-.007,2.68-.006v1.366l-.712,1.854Zm-25.724-27.393c-.05-.3-.091-.537-.129-.776a4.836,4.836,0,0,0-4.675-4.058,4.771,4.771,0,0,0-4.8,3.834c-.125.629-.149,1.278-.225,1.965-.446-.251-.855-.509-1.287-.72a2.234,2.234,0,0,0-2.552.3,2.282,2.282,0,0,0-.817,2.443A2.435,2.435,0,0,0-460.96-89.8q5.8.01,11.6,0c.123,0,.245-.023.39-.037a2.533,2.533,0,0,1,1.452-3.088c.395-.209.764-.467,1.172-.719A2.745,2.745,0,0,0-449.022-94.632Zm21.683,19.292c.009-.154.018-.25.018-.345,0-4.242,0-8.483.011-12.725,0-.352-.189-.476-.426-.624q-4.036-2.5-8.064-5.02a.624.624,0,0,0-.776,0q-4.042,2.539-8.107,5.043a.7.7,0,0,0-.377.7q.014,6.241.007,12.481c0,.158.013.316.02.477h1.609V-86.54h14.5v11.2Zm-37.787-16.108a4.033,4.033,0,0,1,1.194-3.694,4.069,4.069,0,0,1,3.749-1.01,6.62,6.62,0,0,1,2.926-4,5.407,5.407,0,0,0-4.615-2.522c-3.205.041-5.008,1.865-5.749,4.858-.249-.015-.443-.03-.637-.039a3.207,3.207,0,0,0-3.351,2.872,3.153,3.153,0,0,0,2.767,3.517C-467.636-91.363-466.414-91.447-465.126-91.447Zm28.916-4.535a7.573,7.573,0,0,1,1.006.423c1.155.7,2.294,1.417,3.439,2.129q2.752,1.711,5.5,3.425c.37.232.774.316,1.058-.031a1.206,1.206,0,0,0,.2-.872c-.033-.2-.315-.4-.527-.525-3.184-1.954-6.382-3.886-9.56-5.848a1.911,1.911,0,0,0-2.222.011c-3.15,1.947-6.318,3.865-9.479,5.794a2.48,2.48,0,0,0-.4.273.734.734,0,0,0-.17.97.752.752,0,0,0,.915.376,1.867,1.867,0,0,0,.474-.24q4.367-2.712,8.736-5.423A8.468,8.468,0,0,1-436.209-95.982Zm-30.622,13.009c-.969,1.05-.766,2.314-.771,3.538,0,.706,0,1.412,0,2.211a4.293,4.293,0,0,0,2.258-2.715,6.071,6.071,0,0,0-2.552-6.2.767.767,0,0,0-1.022-.011,6.07,6.07,0,0,0-2.573,6.194,4.2,4.2,0,0,0,2.262,2.721c0-1.182.072-2.275-.019-3.354a4.985,4.985,0,0,1,.947-3.116Zm25.016,7.618h4.793V-80.1h-4.793Zm6.453-4.753v4.758h4.791v-4.758Zm-21.63-2.217,1.232,1.182c-.625.327-.6.878-.581,1.444s0,1.138,0,1.707v1.48a3.061,3.061,0,0,0,1.519-2.109,6.6,6.6,0,0,0-1.375-5.075c-.27-.372-.608-.7-.931-1.06a7.3,7.3,0,0,0-2.425,5.181,3.267,3.267,0,0,0,1.146,2.732c.123.107.268.189.464.325,0-1.535,0-2.965,0-4.4a.8.8,0,0,1,.1-.455C-457.57-81.71-457.264-82.022-456.992-82.325Zm26.415.538v-3.161h-4.772v3.161Zm-6.438-3.156h-4.79v3.18h4.79Zm-3.822,17.671c1.491.114,2.722-.591,2.782-1.573A2.447,2.447,0,0,0-440.837-67.272Zm15.726-1.567a2.407,2.407,0,0,0-2.81,1.554A2.41,2.41,0,0,0-425.111-68.84Zm-4.834,1.569a2.378,2.378,0,0,0-2.789-1.544C-432.511-67.778-431.415-67.163-429.945-67.271Zm-12.878-.009a2.38,2.38,0,0,0-2.8-1.522C-445.37-67.751-444.261-67.14-442.823-67.28Zm12.875,11.257a2.342,2.342,0,0,0-2.8-1.48A2.39,2.39,0,0,0-429.949-56.023Zm2.024,0a2.341,2.341,0,0,0,2.794-1.533A2.421,2.421,0,0,0-427.925-56.023Z" fill="#002e48" fill-rule="evenodd"/>
    <path id="Path_41489" data-name="Path 41489" d="M-204.578-12.7a2.415,2.415,0,0,1-2.405-2.421,2.411,2.411,0,0,1,2.432-2.392,2.409,2.409,0,0,1,2.407,2.418A2.417,2.417,0,0,1-204.578-12.7Zm-.774-2.478a.8.8,0,0,0,.732.871.808.808,0,0,0,.852-.757.811.811,0,0,0-.763-.849A.8.8,0,0,0-205.353-15.181Z" transform="translate(-231.626 -75.504)" fill="#f9652f" fill-rule="evenodd"/>
  </g>
</svg>
