<svg xmlns="http://www.w3.org/2000/svg" width="71.158" height="93.001" viewBox="0 0 71.158 93.001">
  <g id="Group_37639" data-name="Group 37639" transform="translate(-374.763 -1241.242)">
    <path id="Path_41509" data-name="Path 41509" d="M437.07,1287.951v10.691c.722.109,1.456.185,2.173.337a8.135,8.135,0,0,1,6.621,9.166c-.236,2.193-.441,4.389-.586,6.591a9.581,9.581,0,0,1-4.526,7.639,50.6,50.6,0,0,1-4.648,2.747,2.875,2.875,0,0,0-1.7,3.009c.083,1.456.031,2.92.015,4.381a1.517,1.517,0,0,1-1.718,1.725q-13.753.014-27.506,0a1.541,1.541,0,0,1-1.724-1.734c-.017-.684-.021-1.369,0-2.052a12.428,12.428,0,0,0-1-5.96,11.209,11.209,0,0,1-.756-4.54c-.081-5.748-.039-11.5-.03-17.249.006-4.326,2.978-6.7,7.191-5.758a1.262,1.262,0,0,0,.266,0c1.633-3.041,4.6-4.312,8.157-2.627,2.024-2.76,4.653-3.508,7.918-2.229v-4.136h-1.13q-21.492,0-42.984,0c-3.057,0-5.294-1.516-6.049-4.134a7.508,7.508,0,0,1-.272-2.02q-.034-6.759-.009-13.519a5.823,5.823,0,0,1,6.184-6.2q10.256-.015,20.512,0h1.054c-2.116-8.082-.1-14.654,7.294-18.831,5.453-3.082,11.017-2.517,16.168,1.058a14.609,14.609,0,0,1,5.687,7.966,15.422,15.422,0,0,1-.3,9.807c2.178,0,4.25-.025,6.321.012a8.859,8.859,0,0,1,2.3.288,5.629,5.629,0,0,1,4.059,5.529q.073,7.087,0,14.173a5.761,5.761,0,0,1-5.851,5.871C437.857,1287.961,437.516,1287.951,437.07,1287.951Zm-30.678,37.891h10.36c4.691,0,9.383.008,14.074-.02a1.221,1.221,0,0,0,.949-.432,5.984,5.984,0,0,1,2.676-2.752c1.487-.838,2.972-1.685,4.411-2.6a6.861,6.861,0,0,0,3.445-5.64c.122-2.169.352-4.332.57-6.495a5.238,5.238,0,0,0-4.079-5.923,16.85,16.85,0,0,0-2.861-.314c-1.442-.094-1.885-.522-1.895-1.933,0-.4,0-.808,0-1.213q0-9.413,0-18.828a2.891,2.891,0,1,0-5.758-.019c-.009,5.468,0,10.936-.006,16.4,0,1.132-.422,1.734-1.273,1.86-.823.121-1.366-.294-1.731-1.327a2.946,2.946,0,0,0-5.776.641,1.546,1.546,0,0,1-1.161,1.51,1.506,1.506,0,0,1-1.723-.8,3.565,3.565,0,0,0-.859-.96,2.332,2.332,0,0,0-2.556-.164,2.393,2.393,0,0,0-1.372,2.263c0,.844-.06,1.655-.975,2.026-.879.357-1.405-.212-2.029-.731a3.123,3.123,0,0,0-1.749-.678c-1.483-.061-2.377,1.05-2.381,2.815-.009,5.624.039,11.247-.024,16.871A11.178,11.178,0,0,0,406.392,1325.842Zm30.633-40.969c2.771.309,4.038-.794,4.039-3.388,0-4.412.01-8.826,0-13.238a2.863,2.863,0,0,0-3.177-3.175c-2.392-.009-4.786.017-7.179-.016a1.485,1.485,0,0,0-1.374.69,15.265,15.265,0,0,1-24.644.009,1.5,1.5,0,0,0-1.37-.7c-7.4.02-14.793.011-22.189.014-2.3,0-3.362,1.064-3.364,3.365q-.006,6.528,0,13.052c0,2.432,1.029,3.466,3.457,3.466q21.488,0,42.978,0h1.085c0-1.5-.032-2.894.01-4.285a12.953,12.953,0,0,1,.266-2.951,5.851,5.851,0,0,1,11.457,1.525C437.054,1281.1,437.025,1282.965,437.025,1284.873Zm-20-15.874a12.322,12.322,0,1,0-12.332-12.293A12.343,12.343,0,0,0,417.025,1269Zm14.359,62.21v-2.3H406.522v2.3Z" transform="translate(0 0)" fill="#002d47" fill-rule="evenodd"/>
    <path id="Path_41510" data-name="Path 41510" d="M400,1279.468q7.92,0,15.84,0c1.047,0,1.655.46,1.756,1.282a1.464,1.464,0,0,1-1.246,1.68,5.313,5.313,0,0,1-.838.025H384.481a3.709,3.709,0,0,1-.836-.035,1.485,1.485,0,0,1,.139-2.939,6.452,6.452,0,0,1,.838-.016Z" transform="translate(-0.5 -2.491)" fill="#fa632c" fill-rule="evenodd"/>
    <path id="Path_41511" data-name="Path 41511" d="M392.73,1272.079c2.793,0,5.587,0,8.382,0,1.157,0,1.841.584,1.819,1.517-.021.894-.7,1.468-1.79,1.47q-8.474.01-16.949,0c-1.089,0-1.759-.586-1.768-1.485s.652-1.5,1.739-1.5C387.019,1272.072,389.875,1272.079,392.73,1272.079Z" transform="translate(-0.499 -2.01)" fill="#002d47" fill-rule="evenodd"/>
    <path id="Path_41512" data-name="Path 41512" d="M417.33,1256.233c1.989-1.937,3.869-3.783,5.77-5.611a3.54,3.54,0,0,1,6.029,2.018,3.224,3.224,0,0,1-.889,2.83c-2.751,2.822-5.507,5.641-8.313,8.408a3.462,3.462,0,0,1-5.017-.051q-2.274-2.2-4.474-4.48a3.543,3.543,0,1,1,5.035-4.985C416.117,1254.983,416.735,1255.632,417.33,1256.233Zm9.071-3.356c-.23-.1-.443-.283-.626-.257a1.46,1.46,0,0,0-.784.358c-2.067,2.059-4.109,4.142-6.166,6.21-1.021,1.026-1.725,1.02-2.766-.008-.839-.829-1.642-1.695-2.519-2.481-.226-.2-.665-.173-1.006-.249.091.345.074.792.289,1.019,1.281,1.351,2.627,2.638,3.923,3.975.491.507.874.555,1.393.024,2.516-2.575,5.058-5.123,7.584-7.687A10.7,10.7,0,0,0,426.4,1252.877Z" transform="translate(-2.255 -0.541)" fill="#fa632c" fill-rule="evenodd"/>
  </g>
</svg>
