<svg xmlns="http://www.w3.org/2000/svg" width="51.938" height="51.139" viewBox="0 0 51.938 51.139">
  <g id="Group_37634" data-name="Group 37634" transform="translate(668.2 -449.866)">
    <path id="Path_41482" data-name="Path 41482" d="M-668.2,464.477a6.333,6.333,0,0,1,.731-.81c1.471-1.164,2.967-2.3,4.436-3.462a.906.906,0,0,0,.308-.615c.024-1.758.011-3.516.017-5.274,0-.256-.03-.422-.318-.539a1.126,1.126,0,0,1-.715-1.077c-.014-.54-.022-1.082,0-1.622a1.232,1.232,0,0,1,1.209-1.2q3.119-.027,6.238,0a1.2,1.2,0,0,1,1.2,1.093,9.326,9.326,0,0,1-.026,1.868,1.149,1.149,0,0,1-.5.812c-.563.246-.557.626-.455,1.161.166-.12.312-.22.452-.328q1.845-1.426,3.689-2.854a2.089,2.089,0,0,1,2.939-.017q7.84,6.063,15.677,12.131c.731.566.793.984.262,1.715-.338.465-.675.931-1.028,1.383a1,1,0,0,1-1.546.226c-.662-.487-1.3-1-2.046-1.573,0,.486.008.866,0,1.246-.015.593-.309.931-.784.918s-.728-.332-.734-.906c-.008-.693.016-1.387-.014-2.079a.8.8,0,0,0-.248-.544q-5.379-4.191-10.779-8.355c-.065-.05-.137-.091-.235-.156l-3.287,2.546q-3.809,2.948-7.622,5.889a.749.749,0,0,0-.331.672q.012,12.273.008,24.545c0,.148.016.3.024.437.466.044.9.055,1.333.13a4.478,4.478,0,0,1,2.988,1.916.555.555,0,0,0,.67.281.677.677,0,0,1,.348-.044c.828.28,1.361-.17,1.991-.633a4.711,4.711,0,0,1,7.47,3.336,14.291,14.291,0,0,1,.006,1.441c.185,0,.379,0,.573,0a1.314,1.314,0,0,1,1.387,1.36c.022.639,0,1.279,0,1.951h5.784v-.582q0-5.452,0-10.9c0-1.192.465-1.662,1.643-1.662q3.5,0,7,0c1.092,0,1.594.487,1.6,1.56q.008,3.144,0,6.289a2.072,2.072,0,0,1-.056.552.674.674,0,0,1-.718.52.674.674,0,0,1-.7-.545,2.572,2.572,0,0,1-.046-.6q0-2.815,0-5.629v-.585h-7.156v11.583h7.156c0-.4-.007-.783,0-1.168.014-.63.262-.942.741-.951.5-.01.763.315.777.969.008.371,0,.742,0,1.151h6.128v-.509q0-7.4,0-14.808a.8.8,0,0,0-.311-.736q-5.385-4.142-10.751-8.308c-.052-.041-.11-.074-.2-.137q-1.234.952-2.476,1.911l-12.15,9.4c-.766.593-1.262.532-1.843-.222q-.4-.522-.8-1.046c-.677-.88-.626-1.32.242-1.992q5.011-3.879,10.023-7.757c.6-.465,1.419-.829,1.724-1.444a5.655,5.655,0,0,0,.1-2.243c0-.321-.006-.643,0-.964.015-.536.28-.844.727-.858.467-.014.773.3.788.858.017.642,0,1.284,0,2a4.013,4.013,0,0,0,.359-.216c.657-.5,1.306-1.019,1.966-1.518a2,2,0,0,1,2.656-.02q7.945,6.135,15.875,12.291a4.439,4.439,0,0,1,.558.63v.507c-.4.562-.8,1.129-1.209,1.687-.63.859-1.108.925-1.939.283l-1.793-1.385v14.639h.582c.507,0,1.015-.015,1.521.007a.758.758,0,0,1,.812.786.759.759,0,0,1-.813.727c-.135.007-.27,0-.406,0h-46.805c-.152,0-.3,0-.456,0a1.26,1.26,0,0,1-1.223-1.19c-.027-.827-.018-1.656,0-2.484a2.324,2.324,0,0,1,.19-.565,2.316,2.316,0,0,0,.16-.61,3.074,3.074,0,0,1,1.611-2.747,1.057,1.057,0,0,0,.428-.5,4.551,4.551,0,0,1,1.966-2.433.75.75,0,0,0,.413-.759q-.015-11.815-.009-23.631c0-.161-.013-.322-.024-.567-.686.529-1.306,1.015-1.936,1.489a1.042,1.042,0,0,1-1.692-.231c-.452-.587-.882-1.191-1.321-1.787Zm2.108,31.659h2.682c1.25,0,2.5-.007,3.751,0,.658.005,1.022.386.9.926-.11.492-.478.6-.923.595-2.078-.005-4.157,0-6.235,0h-.536v1.794h19.979v-1.794h-.6q-4.258,0-8.516,0c-.644,0-.983-.271-.978-.762s.357-.751,1-.758c.385,0,.771,0,1.165,0a1.887,1.887,0,0,0-.467-2,1.944,1.944,0,0,0-2.047-.529c-.922.263-1,.227-1.458-.633a3.182,3.182,0,0,0-3.106-1.685,3.114,3.114,0,0,0-2.743,2.41,1.194,1.194,0,0,1-.869,1A1.4,1.4,0,0,0-666.092,496.136Zm.229-30.539c.189-.142.338-.251.484-.363l14.113-10.919c.737-.57.89-.57,1.633,0q4.331,3.349,8.661,6.7l5.917,4.576.594-.793c-.169-.138-.3-.245-.427-.347L-649.8,452.912c-.623-.482-.677-.482-1.305,0l-11.949,9.243c-1.134.878-2.267,1.758-3.415,2.648Zm47.832,18.531c-.119-.1-.2-.187-.3-.258q-7.6-5.881-15.193-11.765a.719.719,0,0,0-1.029.043q-7.532,5.843-15.076,11.669c-.128.1-.245.212-.387.337l.586.763c.169-.123.305-.217.435-.318l14.2-10.981c.7-.542.865-.544,1.548-.016l14.2,10.98c.14.108.284.211.447.332ZM-652.8,496.135c1.417,0,2.75.007,4.083-.013.105,0,.274-.172.3-.29a3.066,3.066,0,0,0-.415-2.332,3.173,3.173,0,0,0-5.029-.516A3.676,3.676,0,0,1-652.8,496.135Zm-8.35-42.193v4.823c1.172-.907,2.275-1.76,3.375-2.617a.319.319,0,0,0,.126-.2c.01-.666.006-1.333.006-2Zm4.549-2.509H-662.2v.939h5.592Z" fill="#002e48" fill-rule="evenodd"/>
    <path id="Path_41483" data-name="Path 41483" d="M-558.376,546.993q0,2.992,0,5.985c0,1.085-.488,1.567-1.579,1.568q-3.525,0-7.05,0c-1.108,0-1.6-.49-1.6-1.613q0-5.959,0-11.918c0-1.1.475-1.578,1.563-1.578q3.576,0,7.151,0c1.03,0,1.507.48,1.509,1.521Q-558.371,543.975-558.376,546.993Zm-4.322-2.975h2.769v-3.036H-562.7Zm2.755,8.977v-3.058h-2.75v3.058Zm-7.1-8.963h2.757v-3.04h-2.757ZM-564.3,553v-3.073h-2.733V553Zm4.368-7.358h-2.758v2.7h2.758Zm-7.119,2.711h2.758v-2.724h-2.758Z" transform="translate(-86.969 -78.212)" fill="#f9652f" fill-rule="evenodd"/>
    <path id="Path_41484" data-name="Path 41484" d="M-421.927,780.689c0,.3.02.609,0,.911a.742.742,0,0,1-.754.731.732.732,0,0,1-.747-.736c-.025-.607-.023-1.215,0-1.822a.749.749,0,0,1,.728-.765.78.78,0,0,1,.781.77c0,.033,0,.067,0,.1q0,.405,0,.81Z" transform="translate(-213.717 -287.408)" fill="#f9652f" fill-rule="evenodd"/>
  </g>
</svg>
