<svg version="1.2" xmlns="http://www.w3.org/2000/svg" viewBox="0 0 38 38" width="38" height="38">
	<title>Group 38080</title>
	<style>
		.s0 { fill: #ffffff } 
	</style>
	<g id="Group 38080">
		<path id="Path 41691" fill-rule="evenodd" class="s0" d="m16.7 38h-16.7v-7.4h1.2v-0.5q0-3.6 0-7.2c0-2.2 1.1-3.7 3.3-4.4q1.9-0.7 3.9-1.3c0.1-0.1 0.3-0.2 0.3-0.3 0-0.4 0-0.8 0-1.3-0.7 0-1.4 0-2 0-1.9 0-3.3-1.7-3-3.5q0.4-2.2 1-4.4c0.7-3 3.5-5.1 6.6-5.1 3.1 0 5.8 2.2 6.5 5.2q0.5 2 0.8 4.1c0.1 0.5 0.1 1 0 1.4-0.3 1.4-1.5 2.3-3 2.3q-0.9 0-1.9 0c0 0.4 0 0.8 0 1.2 0 0.2 0.1 0.3 0.3 0.4q2.1 0.7 4.2 1.4c1.8 0.6 2.9 2.1 2.9 4q0 1.4 0 2.8c0 0.3 0 0.5 0 0.9 1.1-0.5 2.1-1 3.1-1.5-1.4-1.3-1.9-2.7-1.8-4.6 0-1.3 0-2.5 0-3.8 0-2 1.3-3.2 3.2-3.2q3.5-0.1 6.9 0 0.2 0 0.4 0c0 2.7 0 5.4 0 8.1 0 1.1-0.5 2.1-1.3 3q-0.2 0.2-0.5 0.5 0.2 0.1 0.3 0.2 1.7 0.8 3.4 1.5c1.2 0.6 1.9 1.5 2.3 2.8q0.1 0.3 0.2 0.6v8.1h-19.3q0-0.1 0-0.3 0-2.8 0-5.6 0-0.1 0-0.3h-16.7v5h15.4zm19.2-1.3c0-2.2 0-4.4 0-6.6-0.1-1.1-0.7-2-1.7-2.5q-2.1-0.9-4.3-1.9c-0.1 0-0.3 0-0.4 0-1.3 0.5-2.5 0.5-3.8 0-0.1 0-0.3 0-0.5 0q-1.9 0.9-3.9 1.8-2 0.9-2 3.1 0 2.9 0 5.7 0 0.2 0 0.4zm-4.2-22.3q-3 0-5.9 0-0.2 0-0.5 0c-0.9 0-1.7 0.8-1.7 1.8 0 1.6-0.1 3.1 0 4.7 0.1 2.2 1.8 3.8 3.9 3.9 2.3 0.1 4.1-1.7 4.2-4q0-3.1 0-6.1 0-0.2 0-0.3zm-26.1 16.1v-7.4h1.2v7.4h3.7v-9.9c-0.6 0.5-1.3 0.9-1.9 1.4q-0.9-1-1.8-1.9c-0.3-0.2-0.6-0.7-0.9-0.7-0.4-0.1-0.8 0.1-1.2 0.3q-2.2 0.7-2.2 3.1 0 3.7 0 7.3 0 0.2 0 0.4zm9.9-4.9h1.3v0.4q0 2.1 0 4.2c0 0.1-0.1 0.3 0.1 0.3q0.5 0 1.1 0 0-0.1 0-0.2 0.1-2.1 1.7-3.3c0.1-0.1 0.2-0.3 0.2-0.4q0-2 0-3.9c0-1.3-0.8-2.4-2-2.9-0.4-0.2-0.8-0.3-1.2-0.5-0.2 0-0.3 0-0.4 0.2q-1 0.9-2 1.9c-0.2 0.2-0.3 0.4-0.5 0.7-0.7-0.6-1.3-1-2-1.5v9.9h3.7zm-1.2-16.8c-0.4 0.1-0.7 0.2-1.1 0.2q-1.3 0.1-2.4-0.5c-0.7-0.4-1.5-0.5-2.4-0.2-0.2 0.1-0.3 0.2-0.3 0.4 0 0.9 0.1 1.8 0 2.6 0 0.7 0.2 1.1 0.8 1.5 0.8 0.4 1.2 1.2 1.1 2.1q0 1 0 2h2.5q0-1.2 0-2.3 0-1.2 1-1.8c0.2-0.1 0.4-0.2 0.5-0.3 0.1-0.2 0.3-0.4 0.3-0.5q0-1.6 0-3.2zm1.6-2.2c-1.1-2.1-3.7-3.2-6.1-2.6-2 0.5-4 2.6-4 4.1q0.6-0.2 1.1-0.5c1.5-1 3-1.1 4.5-0.2 0.7 0.4 1.4 0.5 2.1 0.2 0.8-0.3 1.6-0.6 2.4-1zm-2.3 7.8c0.8 0 1.5 0 2.2 0 1.1-0.2 1.8-1.1 1.5-2.3q-0.2-1.1-0.4-2.2-0.3-1-0.5-2.2c-0.2 0.1-0.4 0.2-0.5 0.3-0.4 0-0.5 0.2-0.5 0.6 0.1 1 0 2.1 0.1 3.1q0 1.2-1 1.8c-0.2 0.1-0.3 0.2-0.5 0.3-0.1 0.2-0.3 0.4-0.4 0.6zm-6.8-5.3c-0.4 0.2-0.8 0.4-1.1 0.6-0.1 0.1-0.3 0.3-0.3 0.4q-0.2 1-0.4 2c-0.2 1 0.2 1.9 1.1 2.2 0.8 0.2 1.7 0 2.5 0q-0.1-0.2-0.3-0.4c-0.1-0.2-0.3-0.3-0.5-0.4q-1-0.6-1-1.8c0-0.8 0-1.7 0-2.6zm2 11.3q0.6-0.5 1.3-1c0.5-0.4 0.6-0.6 0.4-1.3-1.2-0.2-2.2 0.5-3.2 0.7q0.7 0.8 1.5 1.6zm4.7 0q0.8-0.8 1.6-1.5c-1.3-0.6-2.5-0.9-3.3-0.7q0 0.2 0 0.5c0 0.1 0 0.3 0.1 0.4 0.5 0.5 1.1 0.9 1.6 1.3z"/>
		<path id="Path 41692" fill-rule="evenodd" class="s0" d="m37.3 10.4q-0.1 0-0.1 0.1c-0.3 0.9-0.9 1.4-1.9 1.4q-7.6 0-15.2 0-0.1 0-0.2 0 0-0.7 0-1.4c0-0.1 0.1-0.2 0.2-0.3q0.6-0.7 1.3-1.3c0.3-0.2 0.4-0.5 0.4-0.9-0.1-1.6 0-3.3-0.1-5 0-1.1 0.4-1.9 1.5-2.3h12.6q1.1 0.4 1.5 1.5zm-15.9 0.1q0 0.1 0.1 0.1 0.1 0 0.2 0 6.8 0 13.6 0c0.5 0 0.7-0.2 0.7-0.8q0-3.5 0-7.1c0-0.6-0.2-0.8-0.8-0.8q-5.7 0-11.4 0c-0.6 0-0.8 0.2-0.8 0.9q0 2.6 0 5.3c0 0.6-0.2 1.1-0.7 1.6q-0.4 0.4-0.9 0.8z"/>
		<path id="Path 41693" class="s0" d="m8.1 34.9v-1.2h6.2v1.2z"/>
		<path id="Path 41694" class="s0" d="m13.1 24.3v-1.2h3.6v1.2z"/>
		<path id="Path 41695" class="s0" d="m24.3 4.4v-1.2h10.5v1.2z"/>
		<path id="Path 41696" class="s0" d="m34.8 5.7v1.2h-10.5v-1.2z"/>
		<path id="Path 41697" class="s0" d="m24.3 9.4v-1.2h8v1.2z"/>
	</g>
</svg>