<svg version="1.2" xmlns="http://www.w3.org/2000/svg" viewBox="0 0 37 33" width="37" height="33">
	<title>Group 38079</title>
	<style>
		.s0 { fill: #ffffff } 
	</style>
	<g id="Group 38079">
		<path id="Path 41681" class="s0" d="m0 29.2c0.3-0.6 0.9-0.4 1.4-0.5v-0.5q0.1-8.9 0-17.7c0-0.8 0.2-1.5 0.8-2.1q0.7-0.8 1.8-0.8 3 0 6 0c0.4 0 0.7 0.2 0.7 0.5 0 0.3-0.3 0.6-0.7 0.6q-2.8 0-5.7 0-1.8 0-1.8 1.8 0 8.9 0 17.8v0.4h1.4q0.4 0 0.8 0 0.8 0 0.8 0.6-0.1 0.5-0.8 0.5-1.8 0-3.6 0c-0.2 1 0.4 1.9 1.4 2q0.1 0 0.3 0 15.3 0 30.6 0c0.9 0 1.6-0.5 1.7-1.2 0.1-0.3 0-0.5 0-0.8h-0.5q-13.5 0-27.1 0-0.2 0-0.4 0c-0.3-0.1-0.4-0.3-0.4-0.6q0-0.4 0.5-0.5 0.2 0 0.4 0 12.8 0 25.6 0c0.5 0 0.5 0 0.5-0.4q0-6.1 0-12.2 0-0.2 0-0.4 0.1-0.5 0.5-0.5 0.5 0 0.5 0.5 0.1 0.2 0.1 0.4 0 6.1 0 12.1v0.5c0.5 0.1 1.1-0.1 1.4 0.5v1.5c-0.4 1.6-1.6 2.2-3.1 2.2q-15.1-0.1-30.2-0.1-0.2 0-0.4 0-1.6-0.1-2.3-1.5c-0.1-0.2-0.1-0.4-0.2-0.6z"/>
		<path id="Path 41682" class="s0" d="m31.5 26.6v-15.8h-0.3q-2.7 0-5.4 0-0.3 0-0.5-0.1-0.3-0.1-0.3-0.5c0-0.3 0.2-0.5 0.5-0.5q3.3 0 6.6 0c0.3 0 0.5 0.2 0.5 0.5q0 0.2 0 0.4 0 8.1 0 16.2c0 0.8-0.1 0.9-0.9 0.9q-13.6 0-27.2 0-0.2 0-0.4 0-0.5-0.1-0.5-0.6 0-0.1 0-0.3 0-8.1 0-16.2 0-0.2 0-0.4 0-0.5 0.5-0.5 3.3 0 6.6 0c0.4 0 0.6 0.2 0.6 0.6 0 0.3-0.3 0.5-0.6 0.5q-2.8 0-5.6 0h-0.4v15.8z"/>
		<path id="Path 41683" class="s0" d="m24.6 7c0 3.4-2.6 6.2-6.2 6.4-3.2 0.3-6.2-2.2-6.7-5.5-0.4-2.6 0.9-5.2 3.2-6.5 2.2-1.4 5.1-1.2 7.2 0.4q0.2 0.2 0.3 0.3 0.3 0.4 0.1 0.7-0.3 0.3-0.7 0.1-0.2-0.1-0.3-0.2c-3.1-2.4-7.6-0.9-8.6 2.9-0.8 3 1.1 6.1 4.1 6.7 3.1 0.6 6-1.4 6.5-4.5q0.2-1.6-0.4-3.1-0.1-0.1-0.1-0.2c-0.1-0.3-0.1-0.6 0.2-0.7 0.3-0.2 0.6 0 0.8 0.3q0.6 1.4 0.6 2.9z"/>
		<path id="Path 41684" class="s0" d="m18.1 24.9q-2.5 0-5 0c-1 0-1.4-0.5-1.4-1.5q-0.1-0.7 0-1.4c0-0.7 0.5-1.2 1.2-1.2q0.5-0.1 1 0c0.4 0 0.6 0.2 0.6 0.5 0 0.3-0.2 0.5-0.6 0.5q-0.4 0-0.8 0c-0.3 0-0.4 0.1-0.4 0.3q0 0.7 0 1.4 0 0.3 0.3 0.3 0.1 0 0.2 0 4.9 0 9.9 0c0.5 0 0.5 0 0.5-0.5q-0.1-0.5 0-1.1c0-0.3-0.2-0.4-0.5-0.4q-3.3 0-6.6 0c-0.5 0-0.8-0.1-0.8-0.5q0-0.5 0.8-0.5 3.4 0 6.7 0c0.9 0 1.4 0.5 1.4 1.4q0 0.6 0 1.2c0 1-0.4 1.5-1.5 1.5q-2.5 0-5 0z"/>
		<path id="Path 41685" fill-rule="evenodd" class="s0" d="m17.2 6.6q1.3-1.3 2.6-2.6c0.6-0.6 0.9-0.6 1.5 0q0.5 0.5 0.9 0.9 0.6 0.6 0 1.2-1.9 1.9-3.9 3.9c-0.7 0.6-1.6 0.6-2.3 0q-1-1-2-2-0.6-0.6 0-1.2 0.5-0.6 1.1-1.1 0.6-0.6 1.1 0 0.5 0.4 0.9 0.9 0 0 0.1 0zm-2.2 0.8q0.9 0.9 1.8 1.9c0.3 0.2 0.5 0.1 0.8-0.1q1.8-1.8 3.6-3.7-0.3-0.3-0.7-0.7-1.4 1.4-2.7 2.7c-0.5 0.4-0.8 0.4-1.2 0q-0.5-0.4-0.9-0.9c-0.3 0.3-0.5 0.5-0.7 0.8z"/>
		<path id="Path 41686" fill-rule="evenodd" class="s0" d="m13 16.6c0 1.8-1.6 3.4-3.4 3.4-1.9 0-3.4-1.6-3.4-3.4 0-1.9 1.5-3.4 3.4-3.4 1.8 0 3.4 1.5 3.4 3.4zm-1.1 0c0-1.3-1-2.3-2.3-2.3-1.3 0-2.3 1-2.3 2.3 0 1.2 1 2.3 2.3 2.3 1.2 0 2.3-1 2.3-2.3z"/>
		<path id="Path 41687" class="s0" d="m22 17.4q3.3 0 6.7 0c0.5 0 0.8 0.2 0.8 0.5q0 0.6-0.8 0.6-6.7 0-13.3 0-0.8 0-0.8-0.6 0-0.5 0.8-0.5 3.3 0 6.6 0z"/>
		<path id="Path 41688" class="s0" d="m29.3 7.6q1.3 0 2.7 0c1.6 0 2.7 1.1 2.7 2.6 0.1 1.1 0.1 2.1 0 3.2 0 0.4-0.2 0.6-0.5 0.6q-0.5 0-0.5-0.6 0-1.5 0-2.9 0-1.8-1.8-1.8-2.7 0-5.5 0-0.1 0-0.2 0c-0.4-0.1-0.6-0.3-0.6-0.6 0-0.3 0.2-0.5 0.6-0.5q1.4 0 2.7 0 0.2 0 0.4 0z"/>
		<path id="Path 41689" class="s0" d="m23.5 16.3q-2.5 0-5.1 0-0.2 0-0.4-0.1-0.4 0-0.4-0.4-0.1-0.4 0.3-0.6 0.2 0 0.5 0 5.1 0 10.3 0 0.2 0 0.4 0 0.4 0.1 0.4 0.5 0 0.5-0.5 0.5-0.2 0.1-0.4 0.1-2.5 0-5.1 0z"/>
		<path id="Path 41690" class="s0" d="m15.5 16.2q-0.2 0.1-0.5 0c-0.2 0-0.4-0.2-0.4-0.4 0-0.3 0.1-0.5 0.4-0.6q0.5 0 1.1 0c0.2 0.1 0.4 0.3 0.4 0.6q-0.1 0.4-0.5 0.4-0.2 0.1-0.5 0z"/>
	</g>
</svg>