<svg version="1.2" xmlns="http://www.w3.org/2000/svg" viewBox="0 0 38 37" width="38" height="37">
	<title>Group 38083</title>
	<style>
		.s0 { fill: #ffffff } 
	</style>
	<g id="Group 38083">
		<path id="Path 41719" fill-rule="evenodd" class="s0" d="m25.1 31.5h-0.5q-10.9 0-21.7 0c-1.4 0-2.5-0.7-2.8-2q-0.1-0.5-0.1-0.9 0-12.7 0-25.3c0-1.8 1.1-3 3-3q15.7 0 31.5 0c1.8 0 2.9 1.2 2.9 3q0 12.6 0 25.3c0 0.5-0.1 1.1-0.3 1.6-0.1 0.1-0.1 0.3 0 0.4 0.2 0.2 0.4 0.5 0.6 0.7 0.3 0.4 0.4 0.8 0.2 1.3-0.3 0.4-0.7 0.5-1.2 0.5-0.9-0.2-1.7-0.4-2.5-0.6q-0.9-0.2-1.7-0.4-1.8-0.4-3 1.1c-0.8 0.9-1.5 1.9-2.3 2.9-0.2 0.2-0.5 0.5-0.8 0.7-0.6 0.3-1.2 0.1-1.3-0.5-0.2-0.4-0.2-0.8-0.2-1.2 0.1-1 0.2-2.1 0.2-3.1q0-0.2 0-0.5zm0.1-1.2q0.1-0.2 0.1-0.4 0.2-3.9 0.5-7.9c0-0.3 0.1-0.7 0.2-1.1 0.3-0.6 1-0.9 1.7-0.5q0.4 0.2 0.8 0.6 3.6 4 7.2 8 0.2 0.2 0.3 0.4 0.1-0.1 0.1-0.1v-20.2h-34.8v0.4q0 9.6 0 19.1c0 1.1 0.5 1.7 1.7 1.7q10.9 0 21.8 0zm10.9-22.5q0-0.2 0-0.4 0-2.1 0-4.2c0-1-0.5-1.6-1.6-1.6q-15.8 0-31.7 0c-1 0-1.6 0.6-1.6 1.6q0 2.1 0 4.2 0 0.2 0 0.4zm0.2 24q0.1-0.1 0.1-0.1-4.6-5.1-9.2-10.2-0.1 0-0.2 0-0.4 6.9-0.9 13.8c0.2-0.1 0.3-0.2 0.3-0.3q1.1-1.3 2.1-2.6 0.7-0.9 1.8-1.3c1-0.4 2-0.3 3-0.1 1 0.3 2 0.5 3 0.8z"/>
		<path id="Path 41720" fill-rule="evenodd" class="s0" d="m4.5 6.8c-1.1 0-2-0.9-2-1.9 0-1.1 0.9-2 2-2 1.1 0 2 0.9 1.9 2 0 1.1-0.8 1.9-1.9 1.9zm0.7-1.9c0-0.4-0.3-0.8-0.7-0.8-0.4 0-0.7 0.4-0.7 0.8 0 0.4 0.3 0.7 0.7 0.7 0.4 0 0.7-0.3 0.7-0.7z"/>
		<path id="Path 41721" fill-rule="evenodd" class="s0" d="m11.4 4.9c0 1.1-0.9 1.9-2 1.9-1.1 0-1.9-0.9-1.9-2 0-1 0.9-1.9 2-1.9 1.1 0 1.9 0.9 1.9 2zm-1.2 0c0-0.4-0.4-0.8-0.7-0.8-0.4 0-0.8 0.4-0.8 0.8 0 0.4 0.4 0.7 0.8 0.7 0.4 0 0.7-0.4 0.7-0.7z"/>
		<path id="Path 41722" class="s0" d="m31.8 4.9q-0.5-0.5-0.8-0.9c-0.3-0.4-0.3-0.7-0.1-1 0.3-0.2 0.7-0.2 1 0.1q0.2 0.2 0.3 0.4 0.2 0.2 0.4 0.4 0.4-0.4 0.7-0.7 0.5-0.6 1-0.2c0.3 0.3 0.2 0.7-0.1 1q-0.3 0.4-0.7 0.8 0 0 0 0.1 0.4 0.4 0.7 0.8c0.3 0.4 0.3 0.8 0.1 1-0.3 0.2-0.7 0.2-1-0.1q-0.3-0.4-0.7-0.8-0.4 0.4-0.7 0.8c-0.3 0.3-0.7 0.3-1 0.1q-0.4-0.4 0.1-0.9 0.3-0.5 0.8-0.9z"/>
	</g>
</svg>